<svg width="21" height="21" viewBox="0 0 21 21" fill="none" xmlns="http://www.w3.org/2000/svg">
<g clip-path="url(#clip0_6086_1917)">
<path d="M16.8652 15.2692L16.7138 15.1518C17.2156 14.4212 17.5666 13.5872 17.7383 12.6823L18.1637 10.4402H15.8817H12.3896V10.3471L18.2088 10.3471C18.2097 10.3988 18.2101 10.4507 18.2101 10.5028C18.2101 12.4081 17.7118 14.0164 16.8652 15.2692Z" fill="#4285F4" stroke="#4285F4" stroke-width="3.77953"/>
<path d="M13.8761 17.734C12.907 18.1502 11.779 18.3857 10.4996 18.3857C7.88441 18.3857 5.55866 17.1391 4.0746 15.2039L4.28918 15.0367C5.70338 16.9282 7.94218 18.1926 10.4996 18.1926C11.6556 18.1926 12.7253 17.9779 13.6772 17.5797L13.8761 17.734Z" fill="#34A853" stroke="#34A853" stroke-width="3.77953"/>
<path d="M1.57265 5.79366C0.890868 7.13906 0.5 8.65727 0.5 10.2754C0.5 11.8936 0.890868 13.4118 1.57265 14.7572C1.57265 14.7662 4.89998 12.1754 4.89998 12.1754C4.69998 11.5754 4.58177 10.939 4.58177 10.2753C4.58177 9.61159 4.69998 8.97527 4.89998 8.37527L1.57265 5.79366Z" fill="#FBBC05"/>
<path d="M10.4998 4.2573C11.9726 4.2573 13.2816 4.76637 14.3271 5.74821L17.1907 2.88461C15.4543 1.26645 13.1999 0.275482 10.4998 0.275482C6.59076 0.275482 3.21808 2.52093 1.57263 5.79367L4.89986 8.37549C5.69072 6.01183 7.89984 4.2573 10.4998 4.2573Z" fill="#EA4335"/>
</g>
<defs>
<clipPath id="clip0_6086_1917">
<rect width="20" height="20" fill="white" transform="translate(0.5 0.275482)"/>
</clipPath>
</defs>
</svg>
