<svg width="30" height="30" viewBox="0 0 30 30" fill="none" xmlns="http://www.w3.org/2000/svg">
<g id="Icon" clip-path="url(#clip0_20_1847)">
<g id="Group">
<path id="Vector" d="M26.8296 16.5243C23.6589 18.2354 23.3529 15.1226 23.3529 15.1226C20.7322 14.8192 18.7804 11.8903 18.7804 11.8903C15.2425 13.7192 17.2132 18.8796 18.739 20.8606C18.9581 21.1433 19.1287 21.4484 19.2702 21.7624H22.9788V25.4399H26.4857V30.0003H2.35791V25.4399H5.8648V21.7624H7.21739C7.20922 21.752 7.19974 21.7433 7.19157 21.7331C4.12864 17.8848 4.91869 14.2469 5.79071 11.8451C6.84125 8.9579 8.26019 7.37473 10.3308 5.68816C13.4045 3.1825 19.0873 2.86572 19.0873 2.86572C19.27 1.82948 22.2589 0.00012207 22.2589 0.00012207C21.9527 0.304067 21.8313 1.95185 21.8313 1.95185C22.1374 1.4023 23.1122 0.85216 23.1122 0.85216C22.5631 2.13284 23.1122 4.87768 23.1122 4.87768C24.6985 6.46567 26.4657 11.9536 26.4657 11.9536L27.1389 12.9281C27.9907 14.1502 27.6752 16.0691 26.8296 16.5243ZM17.2537 2.39712C17.6889 2.39712 18.0407 2.0449 18.0407 1.60881C18.0407 1.17273 17.6889 0.822116 17.2537 0.822116C16.8192 0.822116 16.4661 1.17259 16.4661 1.60881C16.4661 2.04504 16.8192 2.39712 17.2537 2.39712ZM13.8407 3.01055C14.2761 3.01055 14.6282 2.6576 14.6282 2.22225C14.6282 1.78733 14.2761 1.43307 13.8407 1.43307C13.4063 1.43307 13.0533 1.78646 13.0533 2.22225C13.0533 2.65745 13.4063 3.01055 13.8407 3.01055ZM11.0408 4.23508C11.475 4.23508 11.8283 3.88199 11.8283 3.44678C11.8283 3.01143 11.475 2.65833 11.0408 2.65833C10.6056 2.65833 10.2533 3.01055 10.2533 3.44678C10.2532 3.88067 10.6054 4.23508 11.0408 4.23508ZM8.41625 5.80877C8.8516 5.80877 9.20368 5.45743 9.20368 5.02251C9.20368 4.58628 8.85146 4.23421 8.41625 4.23421C7.98104 4.23421 7.62882 4.58453 7.62882 5.02251C7.62867 5.45655 7.98177 5.80877 8.41625 5.80877ZM6.40371 7.99619C6.83862 7.99619 7.1907 7.64499 7.1907 7.20876C7.1907 6.77311 6.83862 6.42089 6.40371 6.42089C5.96835 6.42089 5.61628 6.77311 5.61628 7.20876C5.61613 7.64499 5.96923 7.99619 6.40371 7.99619ZM4.91621 10.6226C5.35113 10.6226 5.70364 10.2695 5.70364 9.83415C5.70364 9.39792 5.35113 9.04497 4.91621 9.04497C4.48173 9.04497 4.12878 9.39719 4.12878 9.83415C4.12878 10.2695 4.48086 10.6226 4.91621 10.6226ZM3.86568 13.7722C4.30059 13.7722 4.65281 13.4192 4.65281 12.983C4.65281 12.5472 4.30059 12.1951 3.86568 12.1951C3.4312 12.1951 3.07825 12.5472 3.07825 12.983C3.07825 13.4191 3.43134 13.7722 3.86568 13.7722ZM3.34034 17.1845C3.77569 17.1845 4.12776 16.8347 4.12776 16.3967C4.12776 15.9622 3.77569 15.6104 3.34034 15.6104C2.90586 15.6104 2.55291 15.9605 2.55291 16.3967C2.55276 16.8329 2.90586 17.1845 3.34034 17.1845ZM3.95362 18.7604C3.51871 18.7604 3.16663 19.1122 3.16663 19.5467C3.16663 19.9829 3.51885 20.3364 3.95362 20.3364C4.38898 20.3364 4.7412 19.9864 4.7412 19.5467C4.7412 19.1122 4.38898 18.7604 3.95362 18.7604Z" fill="#FAFAFA"/>
</g>
</g>
<defs>
<clipPath id="clip0_20_1847">
<rect width="30" height="30" fill="white"/>
</clipPath>
</defs>
</svg>
