<svg width="200" height="200" viewBox="0 0 200 200" fill="none" xmlns="http://www.w3.org/2000/svg">
<g clip-path="url(#clip0_37_1759)">
<circle cx="100" cy="100" r="100" fill="#DA0C81"/>
<path d="M88.3787 69.6261C91.4025 68.4628 93.5484 65.5304 93.5484 62.0967C93.5484 57.6428 89.9378 54.0322 85.4839 54.0322C81.03 54.0322 77.4194 57.6428 77.4194 62.0967C77.4194 66.2126 80.5027 69.6084 84.4856 70.1001L80.8892 99.1935L63.5519 84.1355C65.1372 82.6629 66.129 80.5602 66.129 78.2258C66.129 73.7719 62.5184 70.1613 58.0645 70.1613C53.6106 70.1613 50 73.7719 50 78.2258C50 82.6797 53.6106 86.2903 58.0645 86.2903C58.8486 86.2903 59.6065 86.1784 60.3232 85.9697L69.3548 116.935L78.6946 132.219L69.3548 133.871V145.968L130.769 145.968V133.871L121.31 132.212L130.645 116.935L139.677 85.9697C140.394 86.1784 141.151 86.2903 141.935 86.2903C146.389 86.2903 150 82.6797 150 78.2258C150 73.7719 146.389 70.1613 141.935 70.1613C137.482 70.1613 133.871 73.7719 133.871 78.2258C133.871 80.5602 134.863 82.6629 136.448 84.1355L119.111 99.1935L115.514 70.1001C119.497 69.6084 122.581 66.2126 122.581 62.0967C122.581 57.6428 118.97 54.0322 114.516 54.0322C110.062 54.0322 106.452 57.6428 106.452 62.0967C106.452 65.5304 108.597 68.4628 111.621 69.6261L100 95.9677L88.3787 69.6261Z" fill="white"/>
</g>
<defs>
<clipPath id="clip0_37_1759">
<rect width="200" height="200" fill="white"/>
</clipPath>
</defs>
</svg>
